<svg width="249" height="63" viewBox="0 0 249 63" fill="none" xmlns="http://www.w3.org/2000/svg">
<path d="M215.93 48.1442L220.876 16.9662H248.105L246.525 26.9437H230.936L230.646 28.8133H245.153L243.946 36.2971H229.44L229.15 38.1667H244.739L243.159 48.1442H215.93Z" fill="white"/>
<path d="M215.93 48.1442L220.876 16.9662H248.105L246.525 26.9437H230.936L230.646 28.8133H245.153L243.946 36.2971H229.44L229.15 38.1667H244.739L243.159 48.1442H215.93Z" fill="url(#paint0_linear_6794_706)"/>
<path d="M192.026 48.1442L195.393 26.9437H185.625L187.205 16.9662H218.383L216.803 26.9437H207.035L203.669 48.1442H192.026Z" fill="white"/>
<path d="M192.026 48.1442L195.393 26.9437H185.625L187.205 16.9662H218.383L216.803 26.9437H207.035L203.669 48.1442H192.026Z" fill="url(#paint1_linear_6794_706)"/>
<path d="M167.672 48.1442L172.618 16.9662H184.258L179.312 48.1442H167.672Z" fill="white"/>
<path d="M167.672 48.1442L172.618 16.9662H184.258L179.312 48.1442H167.672Z" fill="url(#paint2_linear_6794_706)"/>
<path d="M130.68 48.1442L135.626 16.9662H147.266L155.082 30.683L157.244 16.9662H168.884L163.938 48.1442H152.298L144.441 34.8003L142.32 48.1442H130.68Z" fill="white"/>
<path d="M130.68 48.1442L135.626 16.9662H147.266L155.082 30.683L157.244 16.9662H168.884L163.938 48.1442H152.298L144.441 34.8003L142.32 48.1442H130.68Z" fill="url(#paint3_linear_6794_706)"/>
<path d="M112.025 37.1702L112.939 31.5172H129.983L127.365 48.1446H120.671L121.13 45.4023C117.97 47.606 114.229 48.9785 110.072 48.9785C100.178 48.9785 94.2347 43.3669 95.9386 32.5582C97.684 21.7495 105.541 16.1379 116.018 16.1379C123.999 16.1379 129.445 19.4215 130.817 25.7399L119.219 29.5233C118.76 27.3196 117.556 26.1568 114.438 26.1568C110.114 26.1568 108.244 28.4848 107.579 32.5582C106.955 36.6315 108.078 38.9595 112.4 38.9595C114.645 38.9595 116.225 38.3355 117.305 37.1728H112.025V37.1702Z" fill="white"/>
<path d="M112.025 37.1702L112.939 31.5172H129.983L127.365 48.1446H120.671L121.13 45.4023C117.97 47.606 114.229 48.9785 110.072 48.9785C100.178 48.9785 94.2347 43.3669 95.9386 32.5582C97.684 21.7495 105.541 16.1379 116.018 16.1379C123.999 16.1379 129.445 19.4215 130.817 25.7399L119.219 29.5233C118.76 27.3196 117.556 26.1568 114.438 26.1568C110.114 26.1568 108.244 28.4848 107.579 32.5582C106.955 36.6315 108.078 38.9595 112.4 38.9595C114.645 38.9595 116.225 38.3355 117.305 37.1728H112.025V37.1702Z" fill="url(#paint4_linear_6794_706)"/>
<path d="M78.4828 48.1442L83.4288 16.9662H95.0688L90.1227 48.1442H78.4828Z" fill="white"/>
<path d="M78.4828 48.1442L83.4288 16.9662H95.0688L90.1227 48.1442H78.4828Z" fill="url(#paint5_linear_6794_706)"/>
<path fill-rule="evenodd" clip-rule="evenodd" d="M44.0543 31.4804L37.0303 0.859375L20.7208 31.4804H0.756714L27.7793 62.3151L64.3813 31.4804H44.0543ZM28.7773 55.8992L11.4774 36.1605H23.4867L34.9444 14.6516L39.8784 36.1605H52.2073L28.7773 55.8992Z" fill="white"/>
<path fill-rule="evenodd" clip-rule="evenodd" d="M44.0543 31.4804L37.0303 0.859375L20.7208 31.4804H0.756714L27.7793 62.3151L64.3813 31.4804H44.0543ZM28.7773 55.8992L11.4774 36.1605H23.4867L34.9444 14.6516L39.8784 36.1605H52.2073L28.7773 55.8992Z" fill="url(#paint6_linear_6794_706)"/>
<path fill-rule="evenodd" clip-rule="evenodd" d="M35.7213 43.5341L32.5296 31.3881L25.6621 43.5341L30.8344 43.5394L35.7213 43.5341Z" fill="white"/>
<path fill-rule="evenodd" clip-rule="evenodd" d="M35.7213 43.5341L32.5296 31.3881L25.6621 43.5341L30.8344 43.5394L35.7213 43.5341Z" fill="url(#paint7_linear_6794_706)"/>
<path fill-rule="evenodd" clip-rule="evenodd" d="M30.8372 43.5394L25.6636 43.542L29.8666 48.5255L35.7229 43.542L30.8372 43.5394Z" fill="white"/>
<path fill-rule="evenodd" clip-rule="evenodd" d="M30.8372 43.5394L25.6636 43.542L29.8666 48.5255L35.7229 43.542L30.8372 43.5394Z" fill="url(#paint8_linear_6794_706)"/>
<defs>
<linearGradient id="paint0_linear_6794_706" x1="19.5713" y1="11.6788" x2="98.6293" y2="-78.3474" gradientUnits="userSpaceOnUse">
<stop offset="0.025" stop-color="#E73235"/>
<stop offset="1" stop-color="#E47E10"/>
</linearGradient>
<linearGradient id="paint1_linear_6794_706" x1="19.5713" y1="11.6788" x2="98.6293" y2="-78.3474" gradientUnits="userSpaceOnUse">
<stop offset="0.025" stop-color="#E73235"/>
<stop offset="1" stop-color="#E47E10"/>
</linearGradient>
<linearGradient id="paint2_linear_6794_706" x1="19.5713" y1="11.6788" x2="98.6293" y2="-78.3474" gradientUnits="userSpaceOnUse">
<stop offset="0.025" stop-color="#E73235"/>
<stop offset="1" stop-color="#E47E10"/>
</linearGradient>
<linearGradient id="paint3_linear_6794_706" x1="19.5713" y1="11.6788" x2="98.6293" y2="-78.3474" gradientUnits="userSpaceOnUse">
<stop offset="0.025" stop-color="#E73235"/>
<stop offset="1" stop-color="#E47E10"/>
</linearGradient>
<linearGradient id="paint4_linear_6794_706" x1="19.5713" y1="11.6788" x2="98.6293" y2="-78.3474" gradientUnits="userSpaceOnUse">
<stop offset="0.025" stop-color="#E73235"/>
<stop offset="1" stop-color="#E47E10"/>
</linearGradient>
<linearGradient id="paint5_linear_6794_706" x1="19.5713" y1="11.6788" x2="98.6293" y2="-78.3474" gradientUnits="userSpaceOnUse">
<stop offset="0.025" stop-color="#E73235"/>
<stop offset="1" stop-color="#E47E10"/>
</linearGradient>
<linearGradient id="paint6_linear_6794_706" x1="19.5713" y1="11.6788" x2="98.6293" y2="-78.3474" gradientUnits="userSpaceOnUse">
<stop offset="0.025" stop-color="#E73235"/>
<stop offset="1" stop-color="#E47E10"/>
</linearGradient>
<linearGradient id="paint7_linear_6794_706" x1="19.5713" y1="11.6788" x2="98.6293" y2="-78.3474" gradientUnits="userSpaceOnUse">
<stop offset="0.025" stop-color="#E73235"/>
<stop offset="1" stop-color="#E47E10"/>
</linearGradient>
<linearGradient id="paint8_linear_6794_706" x1="19.5713" y1="11.6788" x2="98.6293" y2="-78.3474" gradientUnits="userSpaceOnUse">
<stop offset="0.025" stop-color="#E73235"/>
<stop offset="1" stop-color="#E47E10"/>
</linearGradient>
</defs>
</svg>
