<svg width="240" height="60" viewBox="0 0 240 60" fill="none" xmlns="http://www.w3.org/2000/svg">
<path d="M209.366 45.6074L214.066 15.5354H239.943L238.44 25.159H223.626L223.351 26.9623H237.137L235.99 34.1806H222.204L221.928 35.9838H236.743L235.242 45.6074H209.366Z" fill="white"/>
<path d="M186.649 45.6074L189.849 25.159H180.566L182.068 15.5354H211.697L210.195 25.159H200.913L197.715 45.6074H186.653H186.649Z" fill="white"/>
<path d="M163.505 45.6074L168.206 15.5354H179.268L174.567 45.6074H163.505Z" fill="white"/>
<path d="M128.352 45.6074L133.052 15.5354H144.114L151.541 28.7655L153.596 15.5354H164.657L159.957 45.6074H148.895L141.429 32.737L139.414 45.6074H128.352Z" fill="white"/>
<path d="M110.624 35.0225L111.492 29.57H127.69L125.202 45.6076H118.84L119.276 42.9627C116.274 45.0881 112.718 46.4119 108.768 46.4119C99.365 46.4119 93.7174 40.9994 95.3367 30.5741C96.9954 20.1488 104.462 14.7363 114.418 14.7363C122.003 14.7363 127.178 17.9033 128.482 23.9977L117.46 27.6468C117.024 25.5213 115.88 24.3999 112.917 24.3999C108.807 24.3999 107.031 26.6452 106.398 30.5741C105.805 34.503 106.873 36.7483 110.98 36.7483C113.114 36.7483 114.615 36.1464 115.641 35.0249H110.624V35.0225Z" fill="white"/>
<path d="M78.748 45.6074L83.4483 15.5354H94.5099L89.8098 45.6074H78.748Z" fill="white"/>
<path fill-rule="evenodd" clip-rule="evenodd" d="M46.0304 29.5347L39.3555 0L23.8564 29.5347H4.88428L30.5641 59.2756L65.3474 29.5347H46.0304ZM31.5125 53.0872L15.0723 34.0489H26.4848L37.3732 13.303L42.062 34.0489H53.7784L31.5125 53.0872Z" fill="white"/>
<path fill-rule="evenodd" clip-rule="evenodd" d="M38.1117 41.1608L35.0786 29.4456L28.5522 41.1608L33.4676 41.1659L38.1117 41.1608Z" fill="white"/>
<path fill-rule="evenodd" clip-rule="evenodd" d="M33.4701 41.166L28.5537 41.1686L32.5478 45.9752L38.1131 41.1686L33.4701 41.166Z" fill="white"/>
</svg>
