<svg width="142" height="39" viewBox="0 0 142 39" fill="none" xmlns="http://www.w3.org/2000/svg">
<rect x="19.0601" y="25.7137" width="5.95942" height="2.95546" fill="#B9AAFD"/>
<rect x="22.5366" y="30.6383" width="5.95942" height="3.44804" fill="white"/>
<rect x="11.6108" y="20.295" width="5.95942" height="2.95546" fill="white"/>
<rect x="22.5366" y="36.0571" width="5.95942" height="1.97031" fill="#B9AAFD"/>
<rect x="15.584" y="30.6383" width="5.46281" height="3.44804" fill="white"/>
<rect x="15.584" y="36.0571" width="5.46281" height="1.97031" fill="white"/>
<rect x="8.13428" y="30.6383" width="5.46281" height="3.44804" fill="#B9AAFD"/>
<rect x="8.13428" y="36.0571" width="5.46281" height="1.97031" fill="white"/>
<rect x="0.685059" y="30.6383" width="5.95942" height="3.44804" fill="white"/>
<rect x="4.16162" y="25.7137" width="5.95942" height="2.95546" fill="white"/>
<rect x="0.685059" y="36.0571" width="5.95942" height="1.97031" fill="white"/>
<path d="M38.3057 38.4434V20.2915H42.4466L47.2604 37.069H47.5968L52.4106 20.2915H56.5515V38.4434H54.4552V21.7177H54.0928L49.3049 38.4434H45.5522L40.7643 21.7177H40.402V38.4434H38.3057Z" fill="white"/>
<path d="M66.3922 38.4434V20.2915H77.5467V22.2623H68.5662V28.3302H76.8221V30.301H68.5662V36.4726H77.6761V38.4434H66.3922Z" fill="white"/>
<path d="M86.669 38.4434V20.2915H93.9933C95.1147 20.2915 96.0982 20.4903 96.9436 20.8879C97.8063 21.2682 98.4792 21.8214 98.9623 22.5475C99.4454 23.2563 99.687 24.112 99.687 25.1147V25.4C99.687 26.5928 99.4023 27.535 98.8329 28.2265C98.2636 28.918 97.5907 29.3847 96.8142 29.6268V29.9898C97.4354 30.0071 97.9444 30.2145 98.3412 30.6121C98.7553 30.9925 98.9623 31.5716 98.9623 32.3495V38.4434H96.8142V32.6089C96.8142 32.0902 96.6676 31.6926 96.3743 31.416C96.0982 31.1394 95.6755 31.0011 95.1061 31.0011H88.843V38.4434H86.669ZM88.843 29.0303H93.7862C94.9767 29.0303 95.8912 28.7451 96.5296 28.1746C97.1852 27.5868 97.513 26.7743 97.513 25.7371V25.5556C97.513 24.5183 97.1938 23.7144 96.5554 23.1439C95.917 22.5562 94.994 22.2623 93.7862 22.2623H88.843V29.0303Z" fill="white"/>
<path d="M108.69 38.4434V20.2915H110.864V28.2005H111.226L118.887 20.2915H121.785L112.96 29.2637L122.096 38.4434H119.12L111.226 30.3788H110.864V38.4434H108.69Z" fill="white"/>
<path d="M130.18 38.4434V20.2915H132.354V36.4726H141.516V38.4434H130.18Z" fill="white"/>
<path d="M0.870728 12.1549V3.32143H4.44198C4.99722 3.32143 5.48517 3.4308 5.90581 3.64953C6.32645 3.86827 6.65876 4.17954 6.90273 4.58336C7.1467 4.97876 7.26869 5.44988 7.26869 5.99671V6.17338C7.26869 6.7118 7.14249 7.18292 6.89011 7.58674C6.64614 7.99056 6.30962 8.30183 5.88057 8.52056C5.45993 8.7393 4.9804 8.84866 4.44198 8.84866H2.39766V12.1549H0.870728ZM2.39766 7.47317H4.29054C4.72801 7.47317 5.07714 7.35539 5.33794 7.11983C5.60715 6.88427 5.74176 6.56037 5.74176 6.14815V6.02195C5.74176 5.60972 5.61136 5.28583 5.35056 5.05027C5.08976 4.81471 4.73642 4.69693 4.29054 4.69693H2.39766V7.47317ZM14.2539 12.3316C13.1603 12.3316 12.2853 12.0287 11.6291 11.423C10.9813 10.8089 10.6574 9.92971 10.6574 8.78557V6.69077C10.6574 5.54663 10.9813 4.67169 11.6291 4.06597C12.2853 3.45183 13.1603 3.14476 14.2539 3.14476C15.356 3.14476 16.2309 3.45183 16.8787 4.06597C17.5265 4.67169 17.8504 5.54663 17.8504 6.69077V8.78557C17.8504 9.92971 17.5265 10.8089 16.8787 11.423C16.2309 12.0287 15.356 12.3316 14.2539 12.3316ZM14.2539 10.9687C14.9101 10.9687 15.4191 10.7794 15.7809 10.4008C16.151 10.0138 16.3361 9.49225 16.3361 8.83605V6.6403C16.3361 5.98409 16.151 5.46671 15.7809 5.08813C15.4191 4.70114 14.9101 4.50764 14.2539 4.50764C13.6061 4.50764 13.0972 4.70114 12.727 5.08813C12.3653 5.46671 12.1844 5.98409 12.1844 6.6403V8.83605C12.1844 9.49225 12.3653 10.0138 12.727 10.4008C13.0972 10.7794 13.6061 10.9687 14.2539 10.9687ZM22.456 12.1549L21.232 3.32143H22.7337L23.6927 11.1075H23.9073L25.1439 3.32143H27.7814L29.0181 11.1075H29.2326L30.179 3.32143H31.6933L30.4567 12.1549H27.8192L26.5699 4.2174H26.3554L25.0935 12.1549H22.456ZM35.3479 12.1549V3.32143H40.9761V4.69693H36.8748V7.01887H40.6227V8.39437H36.8748V10.7794H41.0392V12.1549H35.3479ZM44.7576 12.1549V3.32143H48.5308C49.086 3.32143 49.5698 3.41818 49.982 3.61168C50.3942 3.80517 50.7139 4.07859 50.941 4.43193C51.1766 4.77685 51.2944 5.19329 51.2944 5.68123V5.82004C51.2944 6.36688 51.164 6.80435 50.9032 7.13245C50.6424 7.46055 50.3269 7.70031 49.9567 7.85174V8.05365C50.2848 8.07048 50.5414 8.18405 50.7265 8.39437C50.92 8.60469 51.0168 8.88652 51.0168 9.23986V12.1549H49.5024V9.45439C49.5024 9.24407 49.4436 9.07581 49.3258 8.94962C49.2164 8.81501 49.0355 8.74771 48.7832 8.74771H46.2845V12.1549H44.7576ZM46.2845 7.37221H48.3793C48.8168 7.37221 49.1575 7.25864 49.4015 7.03149C49.6539 6.79593 49.7801 6.48466 49.7801 6.09767V5.98409C49.7801 5.58869 49.6581 5.27742 49.4141 5.05027C49.1701 4.81471 48.8252 4.69693 48.3793 4.69693H46.2845V7.37221ZM55.1286 12.1549V3.32143H60.7567V4.69693H56.6555V7.01887H60.4034V8.39437H56.6555V10.7794H60.8198V12.1549H55.1286ZM64.248 12.1549V10.8173H65.4342V4.65907H64.248V3.32143H67.8445C69.0223 3.32143 69.9225 3.62009 70.545 4.2174C71.1676 4.81471 71.4789 5.71068 71.4789 6.9053V8.57104C71.4789 9.76566 71.1676 10.6616 70.545 11.2589C69.9225 11.8563 69.0223 12.1549 67.8445 12.1549H64.248ZM66.9486 10.7794H67.8571C68.5722 10.7794 69.1022 10.5943 69.4472 10.2242C69.7921 9.854 69.9646 9.31978 69.9646 8.62152V6.86744C69.9646 6.15235 69.7921 5.61393 69.4472 5.25218C69.1022 4.88201 68.5722 4.69693 67.8571 4.69693H66.9486V10.7794ZM80.6521 12.1549V10.8173H81.8383V4.65907H80.6521V3.32143H85.1698C85.6998 3.32143 86.1625 3.41397 86.5579 3.59906C86.9617 3.77573 87.273 4.03232 87.4917 4.36883C87.7189 4.69693 87.8324 5.09233 87.8324 5.55504V5.66861C87.8324 6.07243 87.7567 6.40474 87.6053 6.66553C87.4538 6.92633 87.273 7.12824 87.0626 7.27126C86.8523 7.41428 86.6504 7.51523 86.4569 7.57412V7.78865C86.6504 7.83912 86.8565 7.93587 87.0753 8.07889C87.3024 8.2135 87.4917 8.4154 87.6431 8.68461C87.803 8.94541 87.8829 9.28613 87.8829 9.70677V9.83297C87.8829 10.3125 87.7651 10.7289 87.5296 11.0823C87.3024 11.4272 86.9869 11.6922 86.5831 11.8773C86.1877 12.0624 85.7292 12.1549 85.2076 12.1549H80.6521ZM83.3526 10.7794H85.031C85.4348 10.7794 85.7545 10.6827 85.99 10.4892C86.234 10.2873 86.356 10.0054 86.356 9.64368V9.5301C86.356 9.16835 86.2382 8.89073 86.0026 8.69723C85.7671 8.49533 85.4432 8.39437 85.031 8.39437H83.3526V10.7794ZM83.3526 7.01887H85.0183C85.4053 7.01887 85.7166 6.92213 85.9522 6.72863C86.1961 6.53514 86.3181 6.26592 86.3181 5.921V5.79481C86.3181 5.44988 86.1961 5.18067 85.9522 4.98717C85.7166 4.79368 85.4053 4.69693 85.0183 4.69693H83.3526V7.01887ZM93.8069 12.1549V9.03795L90.7656 3.32143H92.4692L94.4631 7.22078H94.6776L96.6714 3.32143H98.3624L95.3212 9.03795V12.1549H93.8069Z" fill="#B9AAFD"/>
</svg>
