<svg width="93" height="28" viewBox="0 0 93 28" fill="none" xmlns="http://www.w3.org/2000/svg">
<path d="M18.4661 21.9729V0.543945H23.6454V9.60522H23.9279L31.0115 0.543945H37.1117L29.5153 10.1075L37.2478 21.9729H31.0534L25.7171 13.5499L23.6454 16.1657V21.9729H18.4661Z" fill="#1755F4"/>
<path d="M0.10498 21.9729V19.0223L10.516 4.75022H0.115504V0.543945H17.0662V3.49462L6.65517 17.7666H17.0556V21.9729H0.10498Z" fill="#1755F4"/>
<path d="M86.6462 22.308C85.2092 22.308 83.957 21.9486 82.8897 21.2302C81.8294 20.5117 81.0064 19.5281 80.4203 18.2795C79.8343 17.0309 79.5415 15.6079 79.5415 14.0105C79.5415 12.3991 79.838 10.9656 80.4309 9.71002C81.0307 8.45443 81.8608 7.47086 82.921 6.75936C83.9815 6.04087 85.2126 5.68164 86.6146 5.68164C87.6888 5.68164 88.6619 5.8909 89.5339 6.30944C90.4059 6.721 91.1244 7.30346 91.6894 8.05682C92.2615 8.8032 92.6206 9.67514 92.7672 10.6727H90.8837C90.6884 9.76584 90.2176 8.99155 89.4712 8.3498C88.7317 7.70107 87.7901 7.37671 86.6462 7.37671C85.6207 7.37671 84.7139 7.65571 83.9257 8.21376C83.1374 8.76484 82.52 9.53563 82.0735 10.5262C81.6341 11.5097 81.4145 12.6502 81.4145 13.9477C81.4145 15.2521 81.6307 16.4066 82.0632 17.4111C82.4955 18.4086 83.1024 19.1898 83.8838 19.7549C84.6721 20.3199 85.5928 20.6024 86.6462 20.6024C87.3576 20.6024 88.0063 20.4698 88.5923 20.2048C89.1853 19.9327 89.6805 19.5491 90.0781 19.0538C90.4827 18.5585 90.7547 17.9691 90.8942 17.2855H92.7775C92.638 18.2551 92.2928 19.1201 91.7417 19.8804C91.1976 20.6338 90.4896 21.2267 89.6176 21.6592C88.7527 22.0916 87.7622 22.308 86.6462 22.308Z" fill="#1755F4"/>
<path d="M67.2298 11.9276V21.9724H65.3673V5.90066H67.1774V8.42233H67.3448C67.7216 7.59923 68.3076 6.94002 69.1028 6.44476C69.905 5.94253 70.8955 5.69141 72.0744 5.69141C73.1555 5.69141 74.1043 5.91812 74.9205 6.37152C75.7435 6.81796 76.3817 7.47715 76.8351 8.34911C77.2956 9.22105 77.5257 10.2918 77.5257 11.5613V21.9724H75.6632V11.6764C75.6632 10.3581 75.2936 9.31522 74.5543 8.54791C73.8218 7.78058 72.8382 7.39692 71.6034 7.39692C70.7593 7.39692 70.0095 7.5783 69.3539 7.94102C68.6981 8.30375 68.1784 8.82692 67.7948 9.51053C67.4183 10.1872 67.2298 10.9928 67.2298 11.9276Z" fill="#1755F4"/>
<path d="M52.6426 27.9999C52.273 27.9999 51.9275 27.9651 51.6068 27.8954C51.2859 27.8256 51.0313 27.749 50.8428 27.6653L51.3452 26.0224C51.9799 26.2177 52.5449 26.2875 53.0402 26.2317C53.5354 26.183 53.9751 25.9597 54.3587 25.5619C54.7423 25.1714 55.084 24.5714 55.3839 23.7624L55.97 22.13L50.0582 5.90137H52.0776L56.8488 19.5142H56.9955L61.7667 5.90137H63.7861L56.9849 24.5156C56.699 25.2899 56.3467 25.9352 55.9281 26.4515C55.5095 26.9747 55.0248 27.3617 54.4737 27.6129C53.9295 27.8709 53.3193 27.9999 52.6426 27.9999Z" fill="#1755F4"/>
<path d="M49.0993 9.42752L47.394 9.90883C47.2266 9.42752 46.9894 8.99155 46.6824 8.60092C46.3754 8.21028 45.9744 7.89987 45.4792 7.66966C44.9908 7.43947 44.3839 7.32437 43.6586 7.32437C42.5702 7.32437 41.6774 7.58246 40.9799 8.09866C40.2822 8.61487 39.9334 9.28103 39.9334 10.0972C39.9334 10.7877 40.1706 11.3493 40.645 11.7818C41.1263 12.2073 41.8659 12.5456 42.8632 12.7967L45.2907 13.3931C46.6371 13.721 47.6449 14.2407 48.3147 14.9522C48.9913 15.6637 49.3297 16.5566 49.3297 17.6308C49.3297 18.5376 49.0785 19.3433 48.5762 20.0478C48.0741 20.7524 47.373 21.3069 46.4731 21.7115C45.5803 22.1092 44.5443 22.308 43.3655 22.308C41.7961 22.308 40.5021 21.9557 39.4837 21.2511C38.4651 20.5396 37.8129 19.5142 37.527 18.1749L39.3162 17.7354C39.5464 18.6911 39.9963 19.4131 40.6659 19.9013C41.3425 20.3896 42.2319 20.6338 43.3342 20.6338C44.5687 20.6338 45.5558 20.3582 46.2953 19.8072C47.0346 19.2491 47.4043 18.5516 47.4043 17.7145C47.4043 17.0658 47.1881 16.5217 46.7556 16.0822C46.3232 15.6358 45.6674 15.3079 44.7886 15.0987L42.1623 14.4709C40.7672 14.136 39.7346 13.6059 39.0651 12.8804C38.3953 12.155 38.0606 11.2551 38.0606 10.1809C38.0606 9.29498 38.3013 8.51719 38.7826 7.84754C39.2639 7.17092 39.9265 6.64078 40.7706 6.25712C41.6147 5.87347 42.5773 5.68164 43.6586 5.68164C45.1303 5.68164 46.3056 6.01646 47.1847 6.68612C48.0706 7.3488 48.7088 8.2626 49.0993 9.42752Z" fill="#1755F4"/>
</svg>
