<?xml version="1.0" encoding="UTF-8" standalone="no"?>
<svg
   width="247.34828"
   height="61.455727"
   viewBox="0 0 247.34828 61.455727"
   fill="none"
   version="1.1"
   id="svg35"
   xmlns="http://www.w3.org/2000/svg"
   xmlns:svg="http://www.w3.org/2000/svg">
  <path
     d="m 215.17329,47.284825 4.946,-31.178 h 27.229 l -1.58,9.9775 h -15.589 l -0.29,1.8696 h 14.507 l -1.207,7.4838 h -14.506 l -0.29,1.8696 h 15.589 l -1.58,9.9775 z"
     fill="url(#paint0_linear_6794_706)"
     id="path2"
     style="fill:url(#paint0_linear_6794_706)" />
  <path
     d="m 191.26929,47.284825 3.367,-21.2005 h -9.768 l 1.58,-9.9775 h 31.178 l -1.58,9.9775 h -9.768 l -3.366,21.2005 z"
     fill="url(#paint1_linear_6794_706)"
     id="path4"
     style="fill:url(#paint1_linear_6794_706)" />
  <path
     d="m 166.91529,47.284825 4.946,-31.178 h 11.64 l -4.946,31.178 z"
     fill="url(#paint2_linear_6794_706)"
     id="path6"
     style="fill:url(#paint2_linear_6794_706)" />
  <path
     d="m 129.92329,47.284825 4.946,-31.178 h 11.64 l 7.816,13.7168 2.162,-13.7168 h 11.64 l -4.946,31.178 h -11.64 l -7.857,-13.3439 -2.121,13.3439 z"
     fill="url(#paint3_linear_6794_706)"
     id="path8"
     style="fill:url(#paint3_linear_6794_706)" />
  <path
     d="m 111.26829,36.310825 0.914,-5.653 h 17.044 l -2.618,16.6274 h -6.694 l 0.459,-2.7423 c -3.16,2.2037 -6.901,3.5762 -11.058,3.5762 -9.894004,0 -15.837304,-5.6116 -14.133404,-16.4203 1.7454,-10.8087 9.602404,-16.4203 20.079404,-16.4203 7.981,0 13.427,3.2836 14.799,9.602 l -11.598,3.7834 c -0.459,-2.2037 -1.663,-3.3665 -4.781,-3.3665 -4.324,0 -6.194,2.328 -6.859,6.4014 -0.624,4.0733 0.499,6.4013 4.821,6.4013 2.245,0 3.825,-0.624 4.905,-1.7867 h -5.28 z"
     fill="url(#paint4_linear_6794_706)"
     id="path10"
     style="fill:url(#paint4_linear_6794_706)" />
  <path
     d="m 77.726086,47.284825 4.946,-31.178 h 11.64 l -4.9461,31.178 z"
     fill="url(#paint5_linear_6794_706)"
     id="path12"
     style="fill:url(#paint5_linear_6794_706)" />
  <path
     fill-rule="evenodd"
     clip-rule="evenodd"
     d="M 43.297586,30.621025 36.273586,0 19.964086,30.621025 H 1.360321e-8 L 27.022586,61.455725 l 36.602,-30.8347 z m -15.277,24.4188 -17.2999,-19.7387 h 12.0093 l 11.4577,-21.5089 4.934,21.5089 h 12.3289 z"
     fill="url(#paint6_linear_6794_706)"
     id="path14"
     style="fill:url(#paint6_linear_6794_706)" />
  <path
     fill-rule="evenodd"
     clip-rule="evenodd"
     d="m 31.781174,30.557737 -6.874288,12.124888 4.203,4.9835 5.8563,-4.9835 z"
     fill="url(#paint8_linear_6794_706)"
     id="path18"
     style="fill:url(#paint8_linear_6794_706)" />
  <defs
     id="defs35">
    <linearGradient
       id="paint0_linear_6794_706"
       x1="19.571301"
       y1="11.6788"
       x2="98.629303"
       y2="-78.347397"
       gradientUnits="userSpaceOnUse"
       gradientTransform="translate(-0.75671399,-0.859375)">
      <stop
         offset="0.025"
         stop-color="#E73235"
         id="stop18" />
      <stop
         offset="1"
         stop-color="#E47E10"
         id="stop19" />
    </linearGradient>
    <linearGradient
       id="paint1_linear_6794_706"
       x1="19.571301"
       y1="11.6788"
       x2="98.629303"
       y2="-78.347397"
       gradientUnits="userSpaceOnUse"
       gradientTransform="translate(-0.75671399,-0.859375)">
      <stop
         offset="0.025"
         stop-color="#E73235"
         id="stop20" />
      <stop
         offset="1"
         stop-color="#E47E10"
         id="stop21" />
    </linearGradient>
    <linearGradient
       id="paint2_linear_6794_706"
       x1="19.571301"
       y1="11.6788"
       x2="98.629303"
       y2="-78.347397"
       gradientUnits="userSpaceOnUse"
       gradientTransform="translate(-0.75671399,-0.859375)">
      <stop
         offset="0.025"
         stop-color="#E73235"
         id="stop22" />
      <stop
         offset="1"
         stop-color="#E47E10"
         id="stop23" />
    </linearGradient>
    <linearGradient
       id="paint3_linear_6794_706"
       x1="19.571301"
       y1="11.6788"
       x2="98.629303"
       y2="-78.347397"
       gradientUnits="userSpaceOnUse"
       gradientTransform="translate(-0.75671399,-0.859375)">
      <stop
         offset="0.025"
         stop-color="#E73235"
         id="stop24" />
      <stop
         offset="1"
         stop-color="#E47E10"
         id="stop25" />
    </linearGradient>
    <linearGradient
       id="paint4_linear_6794_706"
       x1="19.571301"
       y1="11.6788"
       x2="98.629303"
       y2="-78.347397"
       gradientUnits="userSpaceOnUse"
       gradientTransform="translate(-0.75671399,-0.859375)">
      <stop
         offset="0.025"
         stop-color="#E73235"
         id="stop26" />
      <stop
         offset="1"
         stop-color="#E47E10"
         id="stop27" />
    </linearGradient>
    <linearGradient
       id="paint5_linear_6794_706"
       x1="19.571301"
       y1="11.6788"
       x2="98.629303"
       y2="-78.347397"
       gradientUnits="userSpaceOnUse"
       gradientTransform="translate(-0.75671399,-0.859375)">
      <stop
         offset="0.025"
         stop-color="#E73235"
         id="stop28" />
      <stop
         offset="1"
         stop-color="#E47E10"
         id="stop29" />
    </linearGradient>
    <linearGradient
       id="paint6_linear_6794_706"
       x1="19.571301"
       y1="11.6788"
       x2="98.629303"
       y2="-78.347397"
       gradientUnits="userSpaceOnUse"
       gradientTransform="translate(-0.75671399,-0.859375)">
      <stop
         offset="0.025"
         stop-color="#E73235"
         id="stop30" />
      <stop
         offset="1"
         stop-color="#E47E10"
         id="stop31" />
    </linearGradient>
    <linearGradient
       id="paint8_linear_6794_706"
       x1="19.571301"
       y1="11.6788"
       x2="98.629303"
       y2="-78.347397"
       gradientUnits="userSpaceOnUse"
       gradientTransform="translate(-0.75671399,-0.859375)">
      <stop
         offset="0.025"
         stop-color="#E73235"
         id="stop34" />
      <stop
         offset="1"
         stop-color="#E47E10"
         id="stop35" />
    </linearGradient>
  </defs>
</svg>
