<svg width="229" height="57" viewBox="0 0 229 57" fill="none" xmlns="http://www.w3.org/2000/svg">
<path d="M198.531 43.4618L203.078 14.8047H228.105L226.653 23.9754H212.325L212.058 25.6939H225.392L224.282 32.5726H210.949L210.682 34.291H225.011L223.559 43.4618H198.531Z" fill="white"/>
<path d="M176.561 43.4618L179.655 23.9754H170.677L172.129 14.8047H200.786L199.334 23.9754H190.356L187.262 43.4618H176.563H176.561Z" fill="white"/>
<path d="M154.175 43.4618L158.721 14.8047H169.42L164.874 43.4618H154.175Z" fill="white"/>
<path d="M120.175 43.4618L124.721 14.8047H135.42L142.603 27.4124L144.591 14.8047H155.289L150.743 43.4618H140.045L132.823 31.1968L130.874 43.4618H120.175Z" fill="white"/>
<path d="M103.028 33.3746L103.868 28.1787H119.534L117.128 43.4617H110.975L111.397 40.9411C108.493 42.9666 105.054 44.2281 101.233 44.2281C92.1388 44.2281 86.6763 39.0703 88.2425 29.1355C89.8467 19.2008 97.0681 14.043 106.698 14.043C114.034 14.043 119.039 17.061 120.301 22.8686L109.64 26.346C109.219 24.3205 108.112 23.2518 105.246 23.2518C101.271 23.2518 99.553 25.3916 98.9413 29.1355C98.3676 32.8795 99.4006 35.0193 103.373 35.0193C105.437 35.0193 106.889 34.4457 107.881 33.377H103.028V33.3746Z" fill="white"/>
<path d="M72.198 43.4618L76.7441 14.8047H87.4429L82.8968 43.4618H72.198Z" fill="white"/>
<path fill-rule="evenodd" clip-rule="evenodd" d="M40.5533 28.1451L34.0973 0L19.1066 28.1451H0.756714L25.5943 56.4866L59.2368 28.1451H40.5533ZM26.5116 50.5894L10.6105 32.4468H21.6488L32.1801 12.6771L36.7151 32.4468H48.0472L26.5116 50.5894Z" fill="white"/>
<path fill-rule="evenodd" clip-rule="evenodd" d="M32.8942 39.2242L29.9605 28.0602L23.6483 39.2242L28.4024 39.229L32.8942 39.2242Z" fill="white"/>
<path fill-rule="evenodd" clip-rule="evenodd" d="M28.405 39.229L23.6497 39.2314L27.5128 43.8119L32.8956 39.2314L28.405 39.229Z" fill="white"/>
</svg>
