<svg width="853" height="224" viewBox="0 0 853 224" fill="none" xmlns="http://www.w3.org/2000/svg">
<path d="M61.7192 34.685V0H70.1025V14.6666H70.5597L82.0253 0H91.8992L79.6035 15.4795L92.1195 34.685H82.0931L73.4558 21.0515L70.1025 25.2855V34.685H61.7192Z" fill="#1755F4"/>
<path d="M32 34.685V29.9091L48.8513 6.80829H32.017V0H59.4534V4.77598L42.6022 27.8767H59.4364V34.685H32Z" fill="#1755F4"/>
<path d="M172.076 35.2239C169.75 35.2239 167.723 34.6423 165.996 33.4794C164.279 32.3165 162.947 30.7245 161.999 28.7035C161.05 26.6824 160.576 24.3791 160.576 21.7936C160.576 19.1854 161.056 16.8652 162.016 14.8329C162.987 12.8005 164.33 11.2085 166.046 10.0569C167.763 8.89394 169.755 8.3125 172.025 8.3125C173.763 8.3125 175.338 8.65121 176.75 9.32866C178.161 9.99481 179.324 10.9376 180.239 12.157C181.165 13.3651 181.746 14.7764 181.983 16.391H178.935C178.619 14.9232 177.857 13.6699 176.648 12.6312C175.451 11.5812 173.927 11.0561 172.076 11.0561C170.416 11.0561 168.948 11.5077 167.672 12.411C166.397 13.303 165.397 14.5506 164.674 16.1539C163.963 17.7458 163.608 19.5919 163.608 21.692C163.608 23.8033 163.958 25.6719 164.658 27.2978C165.358 28.9123 166.34 30.1769 167.605 31.0915C168.881 32.006 170.371 32.4633 172.076 32.4633C173.227 32.4633 174.277 32.2487 175.226 31.8197C176.186 31.3794 176.987 30.7584 177.631 29.9567C178.286 29.1551 178.726 28.201 178.952 27.0945H182C181.774 28.664 181.215 30.064 180.324 31.2947C179.443 32.5141 178.297 33.4738 176.885 34.1738C175.485 34.8737 173.882 35.2239 172.076 35.2239Z" fill="#1755F4"/>
<path d="M140.648 18.4259V34.6845H137.634V8.67074H140.564V12.7523H140.835C141.444 11.42 142.393 10.353 143.68 9.55142C144.978 8.73849 146.582 8.33203 148.49 8.33203C150.24 8.33203 151.776 8.69899 153.097 9.43286C154.429 10.1555 155.462 11.2224 156.196 12.6338C156.941 14.0451 157.313 15.7782 157.313 17.8331V34.6845H154.299V18.0194C154.299 15.8855 153.7 14.1976 152.504 12.9556C151.318 11.7136 149.726 11.0926 147.728 11.0926C146.361 11.0926 145.148 11.3862 144.087 11.9733C143.025 12.5604 142.184 13.4072 141.563 14.5137C140.953 15.6089 140.648 16.9129 140.648 18.4259Z" fill="#1755F4"/>
<path d="M117.038 44.4368C116.439 44.4368 115.88 44.3805 115.361 44.2676C114.842 44.1546 114.43 44.0306 114.125 43.8951L114.938 41.2359C115.965 41.5521 116.88 41.665 117.681 41.5747C118.483 41.4958 119.194 41.1345 119.815 40.4906C120.436 39.8586 120.989 38.8874 121.475 37.5778L122.423 34.9357L112.855 8.66797H116.123L123.846 30.7018H124.083L131.806 8.66797H135.074L124.066 38.7971C123.603 40.0504 123.033 41.0949 122.356 41.9305C121.678 42.7773 120.893 43.4038 120.002 43.8103C119.121 44.2279 118.133 44.4368 117.038 44.4368Z" fill="#1755F4"/>
<path d="M111.302 14.3756L108.542 15.1546C108.271 14.3756 107.887 13.6699 107.39 13.0377C106.893 12.4054 106.244 11.9029 105.443 11.5303C104.652 11.1577 103.67 10.9714 102.496 10.9714C100.734 10.9714 99.2891 11.3892 98.1602 12.2247C97.031 13.0602 96.4663 14.1385 96.4663 15.4595C96.4663 16.5773 96.8503 17.4862 97.6182 18.1862C98.3972 18.8749 99.5942 19.4225 101.209 19.829L105.138 20.7943C107.317 21.325 108.948 22.1662 110.032 23.3178C111.128 24.4695 111.675 25.9147 111.675 27.6534C111.675 29.1212 111.269 30.4253 110.456 31.5657C109.643 32.706 108.508 33.6036 107.051 34.2585C105.606 34.9022 103.93 35.2239 102.022 35.2239C99.4813 35.2239 97.3868 34.6538 95.7384 33.5133C94.0897 32.3617 93.0341 30.7019 92.5713 28.5341L95.4674 27.8228C95.8399 29.3696 96.5682 30.5382 97.6519 31.3286C98.7471 32.1189 100.187 32.5141 101.971 32.5141C103.969 32.5141 105.567 32.0681 106.764 31.1761C107.96 30.2729 108.559 29.1438 108.559 27.7889C108.559 26.7389 108.209 25.8582 107.509 25.1469C106.809 24.4243 105.747 23.8937 104.325 23.5549L100.074 22.5388C97.8159 21.9968 96.1446 21.1387 95.0609 19.9645C93.9768 18.7902 93.4351 17.3338 93.4351 15.595C93.4351 14.1611 93.8246 12.9021 94.6036 11.8182C95.3826 10.7231 96.4552 9.86497 97.8215 9.24398C99.1877 8.62299 100.746 8.3125 102.496 8.3125C104.878 8.3125 106.78 8.85444 108.203 9.93835C109.637 11.011 110.67 12.49 111.302 14.3756Z" fill="#1755F4"/>
<path d="M690.785 219.229L715.643 63.0989H852.491L844.552 113.063H766.204L764.747 122.426H837.654L831.59 159.902H758.682L757.224 169.265H835.572L827.633 219.229H690.785Z" fill="url(#paint0_linear_14360_17091)"/>
<path d="M570.648 219.229L587.567 113.063H538.476L546.415 63.0989H703.11L695.171 113.063H646.08L629.162 219.229H570.648Z" fill="url(#paint1_linear_14360_17091)"/>
<path d="M448.246 219.229L473.104 63.0989H531.605L506.747 219.229H448.246Z" fill="url(#paint2_linear_14360_17091)"/>
<path d="M262.334 219.229L287.192 63.0989H345.692L384.97 131.788L395.837 63.0989H454.337L429.48 219.229H370.979L331.493 152.407L320.834 219.229H262.334Z" fill="url(#paint3_linear_14360_17091)"/>
<path d="M168.577 164.272L173.171 135.964H258.833L245.675 219.229H212.033L214.336 205.496C198.459 216.532 179.653 223.405 158.764 223.405C109.036 223.405 79.1674 195.304 87.731 141.177C96.5027 87.0501 135.989 58.9492 188.646 58.9492C228.756 58.9492 256.126 75.3922 263.024 107.033L204.732 125.979C202.428 114.943 196.376 109.121 180.707 109.121C158.972 109.121 149.576 120.779 146.231 141.177C143.095 161.575 148.743 173.233 170.464 173.233C181.748 173.233 189.687 170.108 195.114 164.285H168.577V164.272Z" fill="url(#paint4_linear_14360_17091)"/>
<path d="M0 219.229L24.8577 63.0989H83.3581L58.5003 219.229H0Z" fill="url(#paint5_linear_14360_17091)"/>
<defs>
<linearGradient id="paint0_linear_14360_17091" x1="22.0736" y1="-0.034869" x2="867.715" y2="340.124" gradientUnits="userSpaceOnUse">
<stop stop-color="#E47E10"/>
<stop offset="1" stop-color="#D6B80F"/>
</linearGradient>
<linearGradient id="paint1_linear_14360_17091" x1="22.0736" y1="-0.034869" x2="867.715" y2="340.124" gradientUnits="userSpaceOnUse">
<stop stop-color="#E47E10"/>
<stop offset="1" stop-color="#D6B80F"/>
</linearGradient>
<linearGradient id="paint2_linear_14360_17091" x1="22.0736" y1="-0.034869" x2="867.715" y2="340.124" gradientUnits="userSpaceOnUse">
<stop stop-color="#E47E10"/>
<stop offset="1" stop-color="#D6B80F"/>
</linearGradient>
<linearGradient id="paint3_linear_14360_17091" x1="22.0736" y1="-0.034869" x2="867.715" y2="340.124" gradientUnits="userSpaceOnUse">
<stop stop-color="#E47E10"/>
<stop offset="1" stop-color="#D6B80F"/>
</linearGradient>
<linearGradient id="paint4_linear_14360_17091" x1="22.0736" y1="-0.034869" x2="867.715" y2="340.124" gradientUnits="userSpaceOnUse">
<stop stop-color="#E47E10"/>
<stop offset="1" stop-color="#D6B80F"/>
</linearGradient>
<linearGradient id="paint5_linear_14360_17091" x1="22.0736" y1="-0.034869" x2="867.715" y2="340.124" gradientUnits="userSpaceOnUse">
<stop stop-color="#E47E10"/>
<stop offset="1" stop-color="#D6B80F"/>
</linearGradient>
</defs>
</svg>
